<?xml version="1.0" encoding="UTF-8"?>
<svg id="Layer_2" data-name="Layer 2" xmlns="http://www.w3.org/2000/svg" viewBox="0 0 1400.65 277.31">
  <defs>
    <style>
      .cls-1 {
        fill: none;
        stroke: #000;
        stroke-miterlimit: 10;
      }
    </style>
  </defs>
  <g id="Layer_3" data-name="Layer 3">
    <path class="cls-1" d="M.3,133.69c26.84,19.97,72.6,48.92,135.73,65.94,23.93,6.45,77.17,18.43,143.98,12.09,16.32-1.55,63.86-13.88,158.27-38.47,52.61-13.7,74.78-19.78,109.91-20.88,22.46-.71,54.2-1.45,91.22,9.89,32.5,9.95,38.18,19.75,106.61,61.55,81.6,49.84,100.12,52.15,109.91,52.76,37.35,2.31,67.07-12.87,97.82-28.58,19.92-10.17,52.32-27.14,81.33-62.65,1.51-1.85,36.37-45.38,42.86-95.62,1.19-9.25,1.93-22.6-3.3-37.37-3.14-8.89-8.06-22.78-19.78-27.48-17.82-7.13-39.36,11.76-47.26,18.68-20.37,17.86-27.99,41.73-29.68,49.46-.27,1.24-3.3,15.39-3.3,15.39h0c.81,1.03,4.57,5.61,7.59,4.73,3.33-.96,3.79-7.95,3.99-10.97,.96-14.53-5.29-27.95-15.63-47.88-14.67-28.27-18.05-32.01-20.62-34.58-5.54-5.53-14.58-14.34-29.26-17.62-4.51-1.01-19.75-4.42-33.25,3.66-15.17,9.08-18.6,26.96-20.95,39.24-4.41,22.98,.76,41.25,5.65,58.52,8.31,29.37,21.47,49.37,28.26,59.52,6.72,10.04,16.62,24.6,33.92,39.57,14.87,12.87,28.03,19.82,40.24,26.27,15.34,8.11,25.03,13.12,39.24,15.3,8.41,1.29,17.28,1.42,31.59-.67,32.45-4.72,56.85-15.55,62.18-17.96,75.45-34.1,75.59-40.9,111.06-52.54,24.75-8.12,52.97-17.06,85.46-12.3,30.52,4.47,48.55,11.97,48.55,11.97,5.13,2.13,14.86,6.53,29.31,10.93,7.71,2.35,14.18,3.91,18.59,4.89"/>
  </g>
</svg>