<?xml version="1.0" encoding="UTF-8"?>
<svg id="Layer_2" data-name="Layer 2" xmlns="http://www.w3.org/2000/svg" viewBox="0 0 125.73 153">
  <defs>
    <style>
      .cls-1 {
        fill: #bd00a4;
      }
    </style>
  </defs>
  <g id="Layer_1-2" data-name="Layer 1">
    <path class="cls-1" d="M22.52,67c-2.39-1.27-14.66-8.06-19-23-.88-3.01-3.92-14.16,2-26C12.24,4.58,25.32,.63,27.52,0H120.51V38.03l-51.99-.03c-1.36,.44-7.37,2.55-11,9-3.6,6.4-2.33,12.6-2,14,19,.33,38,.67,57,1v24H61.24c-6.62,1.21-11.28,7.32-10.71,14,.57,6.71,6.24,11.96,13,12h62.21l-.21,41H39.69c-4.39-.72-13.49-2.83-22.17-10-12.03-9.94-15.18-22.95-16-27-1.09-3.63-2.8-11.33,0-20,2.54-7.88,7.55-12.69,11-16,4.08-3.91,8.1-6.44,11-8-.33-1.67-.67-3.33-1-5Z"/>
  </g>
</svg>