<?xml version="1.0" encoding="UTF-8"?>
<svg id="Layer_2" data-name="Layer 2" xmlns="http://www.w3.org/2000/svg" viewBox="0 0 138.5 176.5">
  <defs>
    <style>
      .cls-1 {
        fill: #ff5a26;
      }
    </style>
  </defs>
  <g id="Layer_1-2" data-name="Layer 1">
    <path class="cls-1" d="M19.83,26.9C13.55,20.27,7.28,13.63,1,7,.67,4.67,.33,2.33,0,0,19.56,.06,39.11,.12,58.67,.18c.11,1.94,.22,3.88,.33,5.82-6.67,7.33-13.33,14.67-20,22-.5,43.83-1,87.67-1.5,131.5l58-2,28-22c.72-.17,5.59-1.21,10,2,4.93,3.6,5,9.41,5,10l-28.5,28.5c-33.64,.17-67.28,.33-100.92,.5-3.35-1-5.9-3.69-6.58-7-.81-3.91,1.14-8.04,4.83-10.09,3.89-.14,7.78-.28,11.67-.41,.28-44.03,.55-88.07,.83-132.1Z"/>
  </g>
</svg>