<?xml version="1.0" encoding="UTF-8"?>
<svg id="Layer_2" data-name="Layer 2" xmlns="http://www.w3.org/2000/svg" viewBox="0 0 102.03 152.61">
  <defs>
    <style>
      .cls-1 {
        fill: #fdd116;
      }
    </style>
  </defs>
  <g id="Layer_1-2" data-name="Layer 1">
    <path class="cls-1" d="M.11,71.85C-.21,59.87-1.36,16.91,24.56,3.88c26.4-13.28,67.93,10.97,66.99,21.46-.09,.95-.51,1.64-1.06,2.38-7.95,10.67-24.55,7.36-37.21,10.73-17.06,4.54-34.03,23.08-35.09,40.54-1.87,30.75,45.6,57.67,55.29,48.89,5.32-4.82-2.33-19.01-1.06-58.43,.7-21.95,3.27-23.53,4.25-23.85,5.62-1.82,17.86,18.48,22.33,39.35,2.12,9.91,8.78,41.02-8.51,58.43-14.15,14.25-39.09,9.45-53.16,2.38C13.63,133.89,6.54,106.88,3.3,94.5c-1.08-4.11-2.91-12.18-3.19-22.66Z"/>
  </g>
</svg>