<?xml version="1.0" encoding="UTF-8"?>
<svg id="Layer_2" data-name="Layer 2" xmlns="http://www.w3.org/2000/svg" viewBox="0 0 115.65 179.57">
  <defs>
    <style>
      .cls-1 {
        fill: #430ffd;
      }
    </style>
  </defs>
  <g id="Layer_1-2" data-name="Layer 1">
    <path class="cls-1" d="M0,171.82V19.65c1.86-1.55,4.56-3.65,8-5.83C30.39-.35,68.22-7.58,94,11.82c3.45,2.6,19.74,14.86,21.5,35.5,.23,2.65,1.36,18.9-9,31-6.99,8.16-19,14.21-33.5,21.5-7.12,3.58-11.18,5.16-12,9-1.03,4.82,3.87,8.76,15,20,20.81,21.01,23.86,27.63,24,34,.04,1.66-.06,7.34-4,12-1.05,1.24-3.14,3.71-6.5,4.5-7.59,1.78-15.52-6.42-17.24-8.95,0,0-2.09-3.08-4.26-5.55-.46-.52-.8-.88-.97-1.07-1.44-1.56-3.55-4.11-6.53-8.43-15.77-23.59-23.92-31.09-27.5-29.5-.82,.36-1.2,1.12-2,1-3.95-.57-8.05-20.38,1-31,.58-.68,1.06-1.12,2-2,8.65-8.08,18.38-10.78,18.5-10.5,.14,.3-10.84,5.3-11,5-.23-.43,22.11-11.84,28-24,2.19-4.52,3-9,3-9,.74-4.06,.61-7.84,.55-9.47-.02-.56-.02-.84-.05-1.03-.89-6.95-8.29-11.02-10-12-4.48-2.58-8.65-2.76-12-3-3.47-.25-8.21-.11-13.5,1.5-4.72,1.43-9.72,2.96-12.5,7.5-.72,1.17-1.23,2.46-2,7-1.51,8.97-1.5,15.5-1.5,15.5,.04,19.92-1.46,32.15,3,35,1.54,.98,3,1,3,1,3.31,.04,5.17-3.42,6-3,1.15,.58-1.71,7.49-3,13-1.75,7.5-.48,11.93,.5,21.5,1.96,19.16,3.32,32.43-4,42-1.38,1.8-5.85,7.65-13,8-7.77,.38-13.18-6-14-7Z"/>
  </g>
</svg>