<?xml version="1.0" encoding="UTF-8"?>
<svg id="Layer_2" data-name="Layer 2" xmlns="http://www.w3.org/2000/svg" viewBox="0 0 93.03 162.42">
  <defs>
    <style>
      .cls-1 {
        fill: #f8301d;
      }
    </style>
  </defs>
  <g id="Layer_1-2" data-name="Layer 1">
    <path class="cls-1" d="M84.32,4.51C65.28-8.14,25.5,7.43,19.72,31.12c-1.34,5.5-.58,10.31,1.58,18.29,12.38,45.92,34.74,63.7,29.15,74.84-6.65,13.25-43.41-1-49.63,12.47-3.07,6.65,3.06,17.63,10.24,22.45,11.06,7.43,25.19,.63,38.6-5.82,10.88-5.23,18.69-8.99,23.63-18.29,7.66-14.41,2.53-30.96,.79-35.76-4.32-11.87-8.45-11.49-14.97-24.95-8.43-17.43-11.35-39.82-4.73-44.07,4.23-2.72,8.54,4.41,18.91,3.33,9.17-.96,18.83-8,19.7-15.8,.61-5.48-4.99-10.87-8.67-13.31Z"/>
  </g>
</svg>