<?xml version="1.0" encoding="UTF-8"?>
<svg id="Layer_2" data-name="Layer 2" xmlns="http://www.w3.org/2000/svg" viewBox="0 0 165.75 207.48">
  <defs>
    <style>
      .cls-1 {
        fill: #a1fc21;
      }
    </style>
  </defs>
  <g id="Layer_1-2" data-name="Layer 1">
    <path class="cls-1" d="M54.62,196.87c-5.37-7.81,1.19-19.06,6.21-38.88,12.54-49.57,.4-93.57,7.55-112.55,.25-.67,.44-1.41,.21-2.32-2.72-10.59-57.05,4.75-66.87-12.65C-2.22,23.48,.9,10.96,8.07,7.78c6.46-2.87,14.34,2.68,15.52,3.53,11.38-.59,22.76-1.18,34.14-1.77,27.93-1.77,55.86-3.53,83.8-5.3,11.3-4.94,20.5-5.61,23.28-1.77,2.41,3.34-.2,9.87-3.08,14-8.48,12.15-22.2,7.56-52.79,24.88-.12,.07-.18,.1-.21,.12-20.71,11.87-19.14,47.27-19.96,75.87-.63,22.03-3.04,52.49-10.86,90.13,0,0-17.6-2.34-23.28-10.6Z"/>
  </g>
</svg>