<?xml version="1.0" encoding="UTF-8"?>
<svg id="Layer_2" data-name="Layer 2" xmlns="http://www.w3.org/2000/svg" viewBox="0 0 151.7 155.17">
  <defs>
    <style>
      .cls-1 {
        fill: #fdd116;
      }
    </style>
  </defs>
  <g id="Layer_1-2" data-name="Layer 1">
    <path class="cls-1" d="M1.7,137.1c19.26-56.9,31-82,31-82,7.53-16.11,18.34-30.47,27-46C62.53,4.02,64.31,.74,67.7,.1c7.71-1.46,14.46,12.42,42,54,8.94,13.49,11.25,16.59,15,24,6.11,12.07,5,13.88,14,38,7.53,20.19,11.71,28.14,8,32-2.41,2.51-7.41,2.52-11,1-9.69-4.1-7.88-18.8-16-46-4.5-15.07-9.66-26-13-33-2.03-4.25-8.35-14.5-21-35-6.84-11.08-9.54-15.31-13-15-2.29,.2-4.06,2.32-13,21-5.55,11.59-5.36,11.81-8,17-8.88,17.48-13.33,19.65-12,23,2.12,5.32,14.51,2.48,58,2,12.28-.14,27.01-.14,46,2,3.36,.38,6.13,.74,8,1v12.4l-17-.4-100,3c-15.26,32.42-20.02,45.81-20,50,0,.37,.05,1.98-1,3-2.34,2.29-9.16,.71-12-3-3.22-4.21-1.08-10.82,0-14Z"/>
  </g>
</svg>