<?xml version="1.0" encoding="UTF-8"?>
<svg id="Layer_2" data-name="Layer 2" xmlns="http://www.w3.org/2000/svg" viewBox="0 0 448.7 133.1">
  <defs>
    <style>
      .cls-1 {
        fill: #fdd116;
      }

      .cls-2 {
        fill: #bd00a4;
      }

      .cls-3 {
        fill: #b435d3;
      }

      .cls-4 {
        fill: #430ffd;
      }

      .cls-5 {
        fill: #a1fc21;
      }
    </style>
  </defs>
  <g id="Layer_1-2" data-name="Layer 1">
    <path class="cls-2" d="M1.26,120.4c14.28-40,22.98-57.65,22.98-57.65,5.58-11.32,13.6-21.42,20.02-32.34,2.1-3.57,3.41-5.88,5.93-6.33,5.71-1.02,10.72,8.73,31.14,37.96,6.63,9.48,8.34,11.67,11.12,16.87,4.53,8.49,3.71,9.76,10.38,26.72,5.59,14.2,8.68,19.78,5.93,22.5-1.79,1.76-5.49,1.77-8.16,.7-7.18-2.88-5.85-13.22-11.86-32.34-3.33-10.6-7.16-18.28-9.64-23.2-1.5-2.99-6.19-10.19-15.57-24.61-5.07-7.79-7.08-10.76-9.64-10.55-1.7,.14-3.01,1.63-9.64,14.76-4.11,8.15-3.98,8.3-5.93,11.95-6.58,12.29-9.89,13.82-8.9,16.17,1.57,3.74,10.76,1.74,43,1.41,9.11-.1,20.03-.1,34.1,1.41,2.49,.27,4.55,.52,5.93,.7v8.72l-12.6-.28-74.14,2.11c-11.31,22.79-14.85,32.21-14.83,35.15,0,.26,.04,1.39-.74,2.11-1.74,1.61-6.79,.5-8.9-2.11-2.39-2.96-.8-7.6,0-9.84Z"/>
    <path class="cls-4" d="M124.34,118.13c-5.61-13.1-1.11-34.88,0-49.13,2.33-29.87-9.12-41.45-.74-48.42,9.79-8.15,31.48,2.62,33.38,3.56,4.42,2.19,17.34,8.76,21.51,22.78,3.04,10.22,1.68,25.26-7.42,29.9-5.41,2.76-13.35,1.73-14.83-1.42-1.87-3.99,8.06-8.19,8.16-17.09,.07-6.3-4.81-12.24-10.38-14.95-4.73-2.3-12.51-3.51-15.58,0-1.54,1.76-.66,3.31,.74,13.53,1.44,10.54,1.32,14.89,4.45,16.38,.68,.32,.44,0,5.19,.71,2.81,.42,4.94,.75,7.42,1.42,.37,.1,3.21,.89,5.93,2.14,2.74,1.26,7.88,3.61,11.13,8.54,3.12,4.75,4.47,11.86,1.48,17.8-1.86,3.69-4.65,5.46-9.64,8.54-7.96,4.91-21.46,10.69-24.48,7.12-1.33-1.57-.37-4.64,.74-6.41,2.95-4.7,8.74-3.07,16.32-8.54,2.51-1.81,5.18-3.74,5.19-6.41,0-2.13-2.22-4.03-6.68-7.83-4.74-4.04-6.41-4.27-7.42-4.27-2.89,0-4.99,1.95-5.19,2.14-.77,.74-2.46,2.68-2.23,15.66,.08,4.44,.31,5.87,0,9.26-.2,2.24-.74,6.41-.74,6.41h0s-6.02,5.69-10.38,4.98c-.59-.1-3.48-.68-5.93-6.41Z"/>
    <path class="cls-1" d="M189.13,63.36c-3.74-20.5,4.16-40.18,18.13-47.79,21.18-11.54,50.35,7.91,49.66,15.09-.06,.67-.38,1.15-.79,1.68-5.89,7.5-18.2,5.18-27.59,7.55-12.65,3.19-25.23,16.23-26.01,28.5-1.39,21.62,33.81,40.54,40.99,34.37,3.95-3.39-1.72-13.37-.79-41.08,.52-15.44,2.42-16.54,3.15-16.77,4.17-1.28,13.24,12.99,16.55,27.67,1.57,6.97,6.51,28.84-6.31,41.08-14.49,13.84-38.06,2.36-39.42,1.68-20.06-10.13-24.69-33.13-25.23-36.05"/>
    <path class="cls-3" d="M278.81,19.43c-13.56,16.96-10.87,56.88,7.65,78.25,9.58,11.06,27.24,21.58,39.89,13.81,3.37-2.07,7.22-5.96,15.3-32.88,9.9-33.01,17.71-59.03,9.83-66.42-4.45-4.17-13.5-2.01-16.39,3.29-2.11,3.88,.04,7.64,1.09,15.78,2.04,15.81-2.6,28.8-7.1,41.43-3.46,9.71-5.29,14.62-9.83,17.1-7.77,4.24-16.44-2.25-16.94-2.63-10.64-8.22-11.61-26.56-12.02-34.19-1.23-23.03,6.94-37.22,2.73-40.77-2.92-2.46-9.87,1.81-14.21,7.23Z"/>
    <path class="cls-5" d="M389.18,117.43c-2.88-4.66,.64-11.37,3.32-23.19,6.72-29.57,.21-55.81,4.04-67.14,.13-.4,.24-.84,.11-1.38-1.46-6.32-30.56,2.84-35.82-7.54-2.11-4.17-.44-11.64,3.4-13.54,3.46-1.71,7.68,1.6,8.31,2.11,6.1-.35,12.19-.7,18.29-1.05,14.96-1.05,29.92-2.11,44.89-3.16,6.05-2.95,10.98-3.35,12.47-1.05,1.29,1.99-.11,5.89-1.65,8.35-4.54,7.25-11.89,4.51-28.28,14.84-.06,.04-.09,.06-.11,.07-11.09,7.08-10.25,28.2-10.69,45.25-.34,13.14-1.63,31.31-5.82,53.76,0,0-9.43-1.4-12.47-6.32Z"/>
  </g>
</svg>