<?xml version="1.0" encoding="UTF-8"?>
<svg id="Layer_2" data-name="Layer 2" xmlns="http://www.w3.org/2000/svg" viewBox="0 0 1940.79 681.71">
  <defs>
    <style>
      .cls-1 {
        fill: none;
        stroke: #221f20;
        stroke-miterlimit: 10;
      }
    </style>
  </defs>
  <g id="Layer_2-2" data-name="Layer 2">
    <path class="cls-1" d="M0,674.67H533.82c38.78-.56,77.55-1.13,116.33-1.69,6.99-5.73,17.05-15.4,25.41-29.93,10.51-18.26,13.28-35.4,14.12-45.18h284.61c1.91-82.76,3.82-165.52,5.74-248.28,.05-2.09,.1-4.17,.14-6.26-3.62-.62-8.9-1.47-15.27-2.35-24.13-3.33-51.26-5.24-115.52-2.74-4.64,.18-37.16,1.95-102.2,5.48-1.45,.08-22.66,1.23-24.12,1.31-1.92,1.99-4.58,5.22-6.38,9.77-2.88,7.27-1.96,13.85-1.58,16.78,2.13,16.59-1.21,9.51,2.33,43.02,4.12,39.06,6.58,28.97,8.57,44.66,.11,.88,.4,3.23,2.1,5.35,3.77,4.71,11.45,4.47,15.57,4.03,80.22,9.69,163.26,18.23,248.99,25.33,73.52,6.09,145.24,10.8,215.06,14.31,20.36-36.11,29.64-68.01,34.26-89.6,1.01-4.73,11.8-57.32-5.65-82.07-1.4-1.98-5.18-7.34-8.62-6.63-6.07,1.25-6.89,20.45-7.19,28.85-1.53,42.48,6.75,190.52,9.86,244.45,.03,2.28,.5,5.19,2.57,7.03,2.61,2.32,6.54,1.8,7.6,1.68,7.23-.79,40.6-.01,88,1.54,2.94,.54,7.53,.88,10.94-1.72,4.92-3.76,4.68-11.59,4.61-14.72-.39-16.36-1.36-57.12,8.95-84.29,3.65-9.63,8.51-16.41,13.55-23.72,10.43-15.1,21.46-25.49,30.87-34.26,6.01-5.6,11.19-9.96,14.68-12.8,.86-16.73,.69-36.58-1.88-58.73-2.38-20.51-6.3-38.6-10.54-53.84,64.88,1.32,129.77,2.63,194.65,3.95,2.53-.46,6.98-.83,10.52,1.7,4.36,3.11,5.01,8.94,5.27,11.67,3.47,35.74,.75,62.49,.75,62.49-1.16,11.38-2.19,27.94-1.13,48.56-2.23,1.47-5.81,3.52-10.54,4.89-5.63,1.63-10.19,1.53-12.05,1.51-18.07-.28-21.14,2.6-50.82,1.51-22.42-.82-22.54-2.53-41.79-3.01-15.53-.39-28.23,.4-36.52,1.13-4.91-19.41-10.95-48.79-12.8-85.08-.66-13.01-.61-23.46,0-44.42,2.97-101.78,10.67-159.11-.98-162.31-1.4-.38-3.96-.22-4.95,1.18-2.41,3.41,5.31,13.08,13.06,21.51,12.35,5.99,31.84,13.97,56.87,18.02,23.42,3.79,57.43,9.4,72.66-3.76,22.65-19.58,8.25-84.45-36.7-158.07-3.51-5.59-10.73-15.18-23.16-20.76-23.09-10.36-51.19-1.05-65.88,15.06-7.44,8.16-10.04,16.52-16.56,62.12-3.53,24.68-6.11,45.56-7.91,61.08-72.85,.85-145.69,1.69-218.54,2.54-6.83-58.98-4.85-87.81-2.45-102.4,.68-4.13,2.58-15.64,4.37-15.56,1.8,.09,2.55,11.89,3.16,21.58,4.48,70.35,5.55,85.32-5.11,93.37-2.41,1.82-6.53,4.13-13.34,4.7h-189.08l-10.16-6.78c-.65-6.42-1.41-15.4-1.79-26.16-1.57-44.96,4.74-86.34,7.15-86.21,.96,.05,.57,6.63,1.89,30.55,3.52,63.43,4.23,78.66-5.91,86.22-3.45,2.57-10.08,5.61-23.09,3.07-89.44-.16-154.14-.22-164.52,.25-.43,.02-6.17,.29-13.17-1.79-4.16-1.23-9.13-2.78-11.46-6.74-2.75-4.67-.6-10.59,.16-12.93,5.11-15.63-2.23-22.09-.27-60.26,.89-17.37,3.53-37.78,5.57-37.73,1.25,.03,2,7.7,2.61,14.41,8.36,91.64,0,100.16-5.27,102.78-.81,.4-2.33,1.05-4.52,1.32-57.98-.31-115.95-.63-173.93-.94-2.37-2.98-5.85-8.13-7.34-15.15-1.54-7.25-.25-13.09,.19-15.34,5.03-25.83-8.31-59.99,2.08-80.48,.82-1.61,3.3-6.51,5.07-6.11,1.86,.42,1.98,6.45,1.98,8.66v94.12c-.12,1.59-.61,5.03-3.11,8.28-3.35,4.37-8.78,5.59-12.14,6.12-18.48,2.9-86.65,.77-112.85,1.41-26.68,.66-53.46-1.7-80.06,.48-3.69,.3-14.53,1.27-21.21-5.37-5.14-5.12-5.46-12.41-5.65-18.45-1.14-37.33-.15-58.23,0-61.36,1.17-25.09,.78-34.69,8.28-39.91,4.2-2.92,9.13-3.26,12.8-3.03,104.15-4.27,192.43-6.2,259.39-7.14,141-1.97,220.32,.04,435.58,.75,103.23,.34,190.17,.23,254.08,.03,3.2-.47,12.22-1.36,21.42,3.77,14.2,7.92,16.77,23.43,17.07,25.42,2.22,8.43,4.86,21.09,5.45,36.67,.41,10.85-.34,18.86-1.82,34.13-1.57,16.21-2.97,27.64-4.73,37.45-.45,2.53-.86,4.63-1.15,6.11-4.23,.92-10.48,2.19-18.09,3.4-28.61,4.54-49.88,4-67.54,3.88-24.88-.18,52.71,1.15-69.72,1.45-41.03,.1-388.21,.7-860.19,1.47-1.4-.11-3.88-.1-5.81,1.43-2.83,2.25-2.88,6.48-2.9,7.99-.28,19.36-2.86,38.74-1.58,58.06,2.33,35.25,3.5,52.88,2.67,56.32-.36,1.5-1.68,6.42,.37,11.53,1.86,4.62,5.7,7.47,8.7,9.17,29.17,3.39,59.57,6.12,91.14,7.99,78.2,4.63,150.75,3.23,216.48-1.66,2.06-1.01,5-2,7.65-.93,6.01,2.43,6.74,13.94,6.86,21.05,.75,47.58-16.39,189.95-16.39,189.95-3.15,32.78-5.84,54.74-8.35,65.72-.48,2.1-1.81,7.55,1.09,10.89,3.32,3.83,10.36,2.8,13.43,2.18,165.9,1.74,331.77,1.85,497.63,.31,55.01-.51,110.03-1.2,165.04-2.07-155.6-7.03-280.99-10.6-369.35-12.57-198.28-4.41-360.37-4.11-446.05-3.58-.39,0-3.17,.02-3.56,.02-.5,.16-3.51,1.15-4.67,4-1.26,3.11,.19,7.2,3.79,9.45,7.29,6.31,20.79,15.85,38.95,17.1,2.94,.2,5.74,.17,8.37-.03,4.19-1.31,8.94-3.27,13.81-6.27,16.77-10.32,24.06-26.2,26.84-33.54,1.52-5.5,3.26-13.93,3.01-24.25-.27-11.16-.55-22.47-8.09-31.66-8.86-10.79-22.65-12.48-33.54-13.81-5.17-.63-16.52-1.89-29.99,2.8-12.3,4.28-19.85,11.25-21.5,12.81-11.48,10.88-15.29,23.73-16.62,29.54-2.55,6.54-5.61,16.66-6.12,29.35-.49,12.35,1.63,22.44,3.58,29.1,2.72,6.04,7.38,14.21,15.32,21.85,18.44,17.72,41.21,19.67,48.48,19.99,6.67-.29,20.17-1.76,34.51-10.13,14.74-8.61,22.73-20.05,26.21-25.78,4.67-7.34,12.14-21.29,14.06-40.23,.84-8.33,2.31-22.9-4.74-38.54-10.84-24.05-34.03-33.33-39.91-35.68-25.48-10.19-54.04-6-74.5,7.4-12.96,8.49-20.36,19.15-23.01,23.28-9.52,14.83-11.4,28.65-11.78,31.77-.94,7.84-.42,14.48,.27,19.17-31.47-6-54.45-7.12-70.06-6.93-18.13,.22-36.66-6.03-54.35-2.05-1.83,.41-8.25,1.99-12.14-1.38-3.62-3.14-3.25-9.03-3.14-11,1.76-32.31-14.32,14.52,.82-141.6,1.11-11.45,3.58-36.28,5.41-69.8,.16-2.87,.27-5.2,.35-6.62-.03-.98,.06-2.42,.82-3.83,3.17-5.87,14.52-5.01,26.84-4.93,6.16,.04,14.15-.43,30.13-1.37,14.68-.86,29.53,.42,44.1-1.64,3.14-.45,9.79-1.48,12.87,2.19,1.94,2.31,1.77,5.65,1.37,7.94-.14,9.94-.35,25.19-.55,43.82-.44,41.21-.66,61.81-.55,68.75,.71,42.82-6.1,85.74-3.01,128.46,.09,1.23,.43,5.14-1.95,7.43-2.82,2.7-7.88,1.61-9.28,1.34-14.96-2.94-30.51,1.29-45.74,.55-23.71-1.15-47.35-4.61-71.09-4.37-4.44,.04-11.2,.2-16.2-4.29-8.45-7.6-5.74-23.12-4.74-29.96,3.67-25.23-4.09-50.93-3.29-76.42,7.85-249.16,7.67-323.74,7.67-323.74-.08-31.23,8.62-61.9,11.31-93.02,1.65-19.06,3.74-48.36,22.38-58.45,4.63-2.51,8.88-3.07,10.68-3.29C556.02,5.54,654.84,9.32,654.84,9.32c8.96,.34-14.82-.64,196.63-4.4,308.37-5.47,233.86-1.16,371.25-4.14,62.4-1.35,124.82,2.47,187.24,2.46,0,0,21.15,0,52.14,3.23,39.69,4.13,59.86,6.43,76.04,17.55,8.05,5.53,27.75,21.5,36.3,60.19,5.66,13.67,11.11,28.61,16.01,44.78,11.12,36.69,16.58,70.48,19.07,99.32,.87,25.49,1.74,50.98,2.6,76.46-16.09,4.18-40.89,9.73-71.64,12.81-32.34,3.24-54.75,2.09-82.21,1.66-38.5-.61-42.61,.88-118.95,2.93-48.18,1.29-126.9,2.85-258.31,3.78-92.04,2.03-166.69,1.64-216.66,.96-162.87-2.22-159.79-8.86-344.61-12.32-54.32-1.02-113.09-1.54-113.29-6.16-.16-3.53,33.92-7.5,61.82-11.09,94.47-12.16,85.7-15.75,222.11-36.78,86.23-13.3,194.46-29.99,334.72-43.02,0,0,115.97-10.77,287.19-11.02,9.33-.01,80.82,.32,167.8,21.8,0,0,72.2,17.83,121.85,64.6,13.63,12.84,19.48,27.95,19.48,27.95,1.5,3.87,2.36,7.15,2.85,9.23,3.2,51.21,4.79,94.63,5.62,127.99,1.6,64.01-1.39,17.78-1.43,102.51-.03,49.58,1,65.44-11.27,77.07-4.29,4.07-12.86,10.32-73.59,9.52-55.14-.73-87.29-6.38-87.2-7.42,.05-.63,11.83,2.43,20.86-4.27,7.64-5.67,9.29-15.36,10.34-21.54,1.12-6.57,4.63-27.21-9.32-41.51-9.95-10.19-23-11.25-30.49-11.86-7.12-.58-19.91-1.62-30.49,6.78-7.86,6.23-10.59,14.57-11.86,18.64-6.25,19.98,3.44,38.61,8.47,48.28,4.83,9.29,10.58,20.33,23.72,27.95,3.69,2.14,16.94,9.58,33.04,6.78,28.13-4.89,39.73-36.64,41.51-41.51,2.16-5.91,10.13-28.89-1.69-53.36-13.2-27.33-40.44-34.48-44.89-35.58-22.19-5.43-40.5,2.01-48.28,5.93-25.71,12.96-34.89,37.17-37.68,46.45-1.01,3.36-8.02,27.83,2.95,53.51,3.15,7.36,9.31,21.79,24.05,28.6,3.64,1.68,6.92,2.5,9.22,2.92l132.05,3.19c130.9,3.16,261.88,2.02,392.9-.83"/>
  </g>
</svg>