<?xml version="1.0" encoding="UTF-8"?>
<svg id="Layer_2" data-name="Layer 2" xmlns="http://www.w3.org/2000/svg" viewBox="0 0 1306.95 687.2">
  <defs>
    <style>
      .cls-1 {
        fill: #ffb841;
      }

      .cls-2 {
        fill: #8adbfe;
      }

      .cls-3 {
        fill: #9ea4b1;
      }

      .cls-4 {
        fill: #5d687d;
      }
    </style>
  </defs>
  <g id="Layer_3" data-name="Layer 3">
    <path class="cls-1" d="M3.59,618.39c-6.6-8.51-2.83-17.68,1.17-43.26,1.45-9.28,1.9-47.88,2.81-125.1,.48-40.93,.83-70.1-.48-108.75C4.66,268.89-.3,260.1,.08,205.65c.37-52.49,.77-79.32,11.69-107.57,5-12.95,26.63-68.9,78.34-90.03C114.8-2.04,136.96,.21,145.07,.21c0,0,40.34,2.29,1001.01,26.07,7.97,.2,8.15,.2,8.15,.2,9.74,.07,10.97-.51,11.57,.27,2.79,3.61-21.81,18.37-32.74,43.26-4.17,9.5-4.01,27.12-3.51,61.97,.6,41.89,2.87,47.11,5.85,51.45,8.51,12.42,23.33,16.24,52.62,23.38,34.58,8.43,57.63,14.05,72.49,1.17,8.36-7.24,10.25-16.98,12.86-30.4h0c8.02-16.04-2.48-30.81-12.74-68.61-3.08-11.35-3.61-15.43-7.36-22.17-3.26-5.83-6.3-11.79-9.63-17.58-2.78-4.83-4.33-7.34-3.34-9.1,2.03-3.6,12.94-1.01,14.36-.64,22.88,5.99,31.34,78.02,44.43,198.77,2.31,21.3,3.46,31.95,4.68,46.77,7.85,95.87-1.33,110.98-1.17,228,.08,56.82,2.31,100.02-14.03,105.23-4.88,1.56-6.84-1.73-18.71-4.68-34.81-8.64-59.48,9.33-66.65,0-3.88-5.06,2.52-11.42,4.68-24.55,5.13-31.25-18.6-71.7-46.77-77.17-7.22-1.4-18.85,2.57-42.09,10.52-27.96,9.56-41.94,14.34-46.77,21.05-15.84,21.98,5.2,53.97-10.52,66.65-6.76,5.45-16.18,3.99-19.88,3.51-69.34-8.96-709.69-3.51-709.72-3.51,.48-3.4,1.27-8.72,2.34-15.2,3.9-25.2,7.34-31.34,7.02-38.58-.94-21.27-33.74-41.47-60.8-46.77-32.89-6.45-76.76,3.88-91.2,31.57-12.6,24.16,1.4,53.49-12.86,60.8-4.2,2.16-6.27,.04-25.72,0-7.67-.02-12.8,.3-25.72,1.17-86.61,5.82-111.23,8.7-121.6-4.68Z"/>
  </g>
  <g id="Layer_4" data-name="Layer 4">
    <path class="cls-2" d="M68.62,158.98c-2.94-10.01-.03-31.32,5.78-73.95,2.43-17.84,5.1-32.31,6.93-41.6,11.19,1.25,26.63,2.68,45.06,3.47,29.12,1.24,50.84,.24,56.62,0,53.73-2.27,147.85,1.04,368.56-3.14,60.04-1.14,292.21-5.9,374.38,3.14,15.54,1.71,25.36,3.87,46.22,4.59,50.93,1.74,70.94-8.47,88.97,5.81,10.2,8.08,13.47,19.02,18.49,35.82,4.22,14.13,13.12,43.91-3.14,64.1-9.85,12.23-24.83,15.85-26.44,16.22-9.96,2.27-18.15,.5-20.1,.12-1.86-.37-67.48,.29-198.74,1.6-199.16,1.99-298.74,2.99-315.44,3.47-239.78,6.9-432.89,28.99-447.16-19.64Z"/>
  </g>
  <g id="Layer_5" data-name="Layer 5">
    <path class="cls-2" d="M1129.32,152.05c-1.82-43.87-2.59-66.16,4.62-83.19,4.93-11.65,12.74-30.1,32.35-38.13,17.7-7.25,38.35-3.29,51.99,6.93,7.63,5.72,12.51,15.83,21.95,35.82,2.4,5.09,7.52,16.19,21.95,56.62,9.93,27.83,11.67,34.25,11.55,43.91-.12,9.44-.31,25.09-10.4,34.66-3.62,3.44-11.99,9.38-55.46,3.47-42.39-5.77-63.8-8.98-73.95-25.42-2.03-3.29-3.46-6.83-4.62-34.66Z"/>
  </g>
  <g id="Layer_6" data-name="Layer 6">
    <path class="cls-2" d="M62.85,326.52c-7.7-10.57-1.45-17.89-3.47-57.77-.85-16.87-2.5-25.95,1.16-40.44,1.88-7.44,5.62-21.57,15.02-24.26,7.14-2.05,14.4,3.39,16.18,4.62,32.5,22.44,139.81-1.16,139.81-1.16,13.78-3.06,.31,.85,213.76-2.31,145.5-2.16,153.85-4.01,294.64-5.78,206.83-2.6,170.27,1.63,186.03,0,35.99-3.72,98.98-12.58,162.92,6.93,8.73,2.67,22.65,7.43,34.66,11.55,49.86,17.09,74.79,25.64,98.21,38.13,28.26,15.07,67.71,41.92,63.55,51.99-2.7,6.55-22.46,2.68-45.06,1.16-55.44-3.75-90.48,9.07-125.94,16.18-85.25,17.09-192.09,5.05-410.19,4.63-120.18-.23-180.27-.34-217.22,3.46,0,0-211.84,21.79-388.23,8.09-8.97-.7-26.65-2.45-35.82-15.02Z"/>
  </g>
  <g id="Layer_7" data-name="Layer 7">
    <path class="cls-4" d="M176.08,618.85c-4.07-42.05,33.06-82.05,73.95-90.12,27.88-5.51,65.4,2.27,78.57,25.42,5.96,10.47,14.97,38.23,6.93,60.08-1.21,3.3-4.18,10.18-1.16,13.87,4.61,5.62,18.14-2.29,21.95,2.31,4,4.81-3.87,21.86-17.33,32.35-11.03,8.6-22.21,9.98-54.31,11.55-44.5,2.18-66.95,3.15-76.26-2.31-19.16-11.24-30.43-33.3-32.35-53.15Z"/>
  </g>
  <g id="Layer_8" data-name="Layer 8">
    <path class="cls-3" d="M211.9,607.29c-.12-5.81,.21-30.14,19.64-46.22,15.35-12.7,40.95-18.85,57.77-6.93,10.34,7.32,13.49,18.72,15.02,24.26,6.51,23.57-1.4,56.52-26.58,70.48-2.94,1.63-25.36,13.61-45.06,2.31-20.11-11.54-20.67-37.74-20.8-43.91Z"/>
  </g>
  <g id="Layer_9" data-name="Layer 9">
    <path class="cls-4" d="M1060.65,608.39c1.82-7.87,8.82-36.12,35.82-53.15,2.53-1.6,38.56-23.62,67.02-6.93,10.46,6.13,15.45,14.88,20.8,24.26,5.59,9.8,20.8,36.47,10.4,67.02-1.14,3.35-8.97,25.27-31.2,38.13-14.59,8.44-28.13,8.77-47.37,9.24-19.74,.48-29.61,.72-38.13-4.62-21.9-13.74-22.57-51.29-17.33-73.95Z"/>
  </g>
  <g id="Layer_10" data-name="Layer 10">
    <path class="cls-3" d="M1098.12,606.14c1.44-12.91,9.71-28.57,25.42-34.66,2.58-1,16.79-6.52,30.04,1.16,12.7,7.35,15.25,21.46,16.18,26.58,2.85,15.76-3.92,27.97-5.78,31.2-1.7,2.96-13.66,23.77-32.35,23.11-18.59-.66-31.32-22.11-33.41-37.99-.34-2.57-.5-5.75-.09-9.38Z"/>
  </g>
</svg>