<?xml version="1.0" encoding="UTF-8"?>
<svg id="Layer_2" data-name="Layer 2" xmlns="http://www.w3.org/2000/svg" viewBox="0 0 72.31 186.31">
  <defs>
    <style>
      .cls-1 {
        fill: #43953a;
      }
    </style>
  </defs>
  <g id="Layer_1-2" data-name="Layer 1">
    <path class="cls-1" d="M8.95,181.51c.37-.84-.18-1.89-.92-2.13-.06,0,0-.05,.01-.08,.08-.1,.15-.22,.23-.31,6.69-8.8,17.08-12.97,25.96-19.02,3.65-2.69,6.64-6.09,9.51-9.55,7-8.85,12.18-19.12,14.63-30.16,2.93-13.56,2.94-28.04,2.43-41.92-.91-16.42-5.96-32.79-16.64-45.48-4.02-4.67-8.92-8.58-14.14-11.8-5.48-3.48-11.88-6.79-17.67-9.82-2.4-1.71-2.98-5.62-4.9-7.63,0,0,.32-.26,.32-.26-.55,.99,.13,1.87,1.54,2.7,1.47,.83,3.52,1.61,4.66,2.47,1.61,1.32,2.23,3.6,2.77,5.48,.68,3.73,.52,7.54,.92,11.31,1.69,22.64,1.69,45.37,1.67,68.06,.12,18.9-.79,37.83-1.24,56.72,.11,7-.08,14.04-1.98,20.83-.85,1.64-1.87,2.31-3.44,4.28-1.23,1.51-2.57,3.56-3.74,6.33h0Zm-2.83,3.7c-3.2-3.71-4.97-10.38-5.23-15.72-1.43-10.5,1.21-20.92,1.33-31.42,1.33-29.73,1.18-59.66-.48-89.39,0,0-1.13-22.32-1.13-22.32,.03-4.68-1.36-9.39-.05-14,.39-1.06,.45-2.01,1.39-2.91,1.13-1.52,7.18-3.8,5.23-6.19,0,0,.42-.13,.42-.13C10.16,2.42,13.78-.49,16.54,.07c14.8,3.65,26.78,14.06,36.22,25.63,15.97,19.28,20.24,42.56,19.48,66.95,.13,27.39-4.96,50.34-23.96,71.21-9.42,10.45-20.14,23.14-35.62,22.42-.65-.03-1.35-.11-2-.21-1.42,.23-3.48-.02-4.53-.86h0Z"/>
  </g>
</svg>