<?xml version="1.0" encoding="UTF-8"?>
<svg id="Layer_2" data-name="Layer 2" xmlns="http://www.w3.org/2000/svg" viewBox="0 0 162 179">
  <defs>
    <style>
      .cls-1 {
        fill: #92ac03;
      }
    </style>
  </defs>
  <g id="Layer_1-2" data-name="Layer 1">
    <path class="cls-1" d="M2.5,52.5c4.65-8.48,14.87-24.36,34-37C51.6,5.53,66.07,1.66,75,0l60,1c.93,.3,6.68,2.28,9,8,2.32,5.72,.25,12.82-5.3,17.25h-62.43c-5.3,1.14-16.55,4.31-27.27,13.75-10.59,9.31-15.17,19.9-17,25-.33,15.67-.67,31.33-1,47,1.21,5.3,5.13,19.3,18,31,10.44,9.49,21.6,12.78,27,14h32.23c2.49-1.46,6.44-4.24,9.77-9,2.07-2.96,3.28-5.81,4-8,.33-13.33,.67-26.67,1-40h-41c-2.28-.51-6.27-1.75-10-5-2-1.74-4.62-4.02-5-7-.59-4.6,4.23-10.03,12-13l70,1c7.99,2.53,13.16,7.37,13,12-.08,2.4-1.58,4.25-3,6-4.23,5.22-9.9,7.21-13,8-.33,14.33-.67,28.67-1,43-.67,3.84-2.75,12.66-10,21-7.49,8.61-16.29,11.86-20,13H62c-8.45-3.28-24.54-10.81-39-27C7.69,134.86,2.12,116.88,0,108V60.23l2.5-7.73Z"/>
  </g>
</svg>