<?xml version="1.0" encoding="UTF-8"?>
<svg id="Layer_2" data-name="Layer 2" xmlns="http://www.w3.org/2000/svg" viewBox="0 0 73.51 141">
  <defs>
    <style>
      .cls-1 {
        fill: #fdd116;
      }
    </style>
  </defs>
  <g id="Layer_1-2" data-name="Layer 1">
    <path class="cls-1" d="M.71,0H73.51V5.31c-.7,.07-1.7,.23-2.8,.69-3.38,1.41-5.09,4.49-8,11-1.59,3.56-3.29,7.57-5,12-.33,26.67-.67,53.33-1,80,2.49,6.25,5.1,10.93,7,14,2.77,4.48,9,13,9,13v5H0v-7.54c.96-.07,1.86-.23,2.71-.46,12.19-3.33,16.24-22.19,17-26V24c-.81-2.63-2.68-7.44-7-12-3.68-3.89-7.58-5.95-10-7H.71V0Z"/>
  </g>
</svg>