<?xml version="1.0" encoding="UTF-8"?>
<svg id="Layer_2" data-name="Layer 2" xmlns="http://www.w3.org/2000/svg" viewBox="0 0 181.71 171.5">
  <defs>
    <style>
      .cls-1 {
        fill: #07bc0b;
      }
    </style>
  </defs>
  <g id="Layer_1-2" data-name="Layer 1">
    <path class="cls-1" d="M63.05,0h14.31l1.34,6.5-2,7-13.66,1.28h-9.36V91.5s4.68-2.41,4.68-2.41L130.71,16.5v-1.35l-25-.65-3-5,5-7h66l4,5-3,8h-26l-27,27c-9.33,9.33-18.67,18.67-28,28,8.07,12.07,16.72,24.43,26,37,12.86,17.43,25.7,33.61,38.3,48.61l17.7,2.39,6,5-3,8H112.12l-7.41-8,6-5h21v-4l-48.86-68.75-1.14-2.25-28.01,26.83v48.12l18.01,.04,8,4c.67,1.67,1.33,3.33,2,5-.61,1.33-1.22,2.67-1.83,4H4.47l-4.47-5,7.71-8H28.71V13.5l-20-2L1.71,5.5,2.98,0H63.05Z"/>
  </g>
</svg>