<?xml version="1.0" encoding="UTF-8"?>
<svg id="Layer_2" data-name="Layer 2" xmlns="http://www.w3.org/2000/svg" viewBox="0 0 165.36 141.29">
  <defs>
    <style>
      .cls-1 {
        fill: #f8301d;
      }
    </style>
  </defs>
  <g id="Layer_1-2" data-name="Layer 1">
    <path class="cls-1" d="M2.36,118.01c8.21-20.41,16.96-36.45,24-48,6.95-11.41,13.13-20.56,18.69-27.69,10.33-13.25,17.06-18.68,21.31-27.31,.36-.72,2.77-5.67,8-9,1.66-1.06,5.81-3.7,9-2,2.14,1.14,2.93,3.74,3,4,.54,1.88,.12,3.51,0,4-5.09,20.36-6.65,41.47-11,62-1.72,8.13-2.09,10.34-1,11,1.6,.97,6.13-2.39,41-45,8.51-10.4,19.74-18.4,28-29C145.48,8.29,151.99-.26,159.36,0c.8,.03,3.51,.13,5,2,1.92,2.42,.59,6.28,0,8-2.07,5.99-6.49,9.58-7,10-10.83,8.9-27.92,45.5-35,79-1.17,5.53-3.66,16.9-4,32-.05,2.41,.32,3.91,0,7-.2,1.92-.44,2.63-1,3-1.46,.98-4.21-.83-6-2-2.03-1.33-4.99-3.27-7-7-2.17-4.02-2.08-7.96-2-10,1.28-31.62,11-53,11-53,4.42-9.72,7.78-14.43,7-15-1.23-.9-13.87,17.89-34,38-5.73,5.72-8.93,8.42-11,14-5.31,14.31-6,19-6,19-.14,.92-.43,3.14-2,4-2.31,1.26-5.9-1.24-7-2-.85-.59-3.5-2.45-5-6-1.29-3.07-1.09-5.89-1-7,4.39-52.87,11-73,11-73,.44-1.34,1.57-4.72,1-5-1.02-.5-6.58,9.31-12,18-8.22,13.18-10.59,14.04-21,30-3.42,5.24-5.44,8.35-8,13-4.51,8.19-6.77,12.28-9,18-2.88,7.38-3.29,11.01-7,13-2.29,1.23-6.03,1.93-8,0-1.98-1.94-1.93-6.27,1-10Z"/>
  </g>
</svg>