<?xml version="1.0" encoding="UTF-8"?>
<svg id="Layer_2" data-name="Layer 2" xmlns="http://www.w3.org/2000/svg" viewBox="0 0 134.01 193">
  <defs>
    <style>
      .cls-1 {
        fill: #8237dc;
      }
    </style>
  </defs>
  <g id="Layer_1-2" data-name="Layer 1">
    <path class="cls-1" d="M.27,166c.83-41.17,1.67-82.33,2.5-123.5,.54-13.88,4.5-23.7,7.5-29.5C13.56,6.66,16.93,.15,22.27,0c4.56-.12,9.14,4.42,12,11,2.3,19.73,5.79,36.3,9,49,7.47,29.54,17.01,52.12,20,59,2.98,6.87,12,27,12,27,0,0,4.88,5.22,14,15,.67-34.67,1.33-69.33,2-104,3.19-14.64,8.69-25.22,13-32,5.34-8.4,12.81-20.15,21-19,3.93,.55,7.88,4.05,8.62,8,1.2,6.46-6.77,11.1-13.62,20-4.4,5.73-9.76,15.07-12,30-.24,36.83-.48,73.67-.73,110.5l-6.27,3.5-19-2c-5.04-4.32-12.22-11.22-19-21-11.56-16.68-14.11-30.41-24-65-2.89-10.1-7.24-24.93-13-43-1.03,.94-2.38,2.41-3.5,4.5-1.75,3.28-1.99,6.36-2,8-.83,44.5-1.67,89-2.5,133.5h-6.15c-2.06-1.42-6.91-5.16-9.85-12-2.85-6.62-2.35-12.51-2-15Z"/>
  </g>
</svg>