        <svg className="Icon" width="128" height="128" xmlns="http://www.w3.org/2000/svg">
            <g>
                <title>background</title>
                <rect fill="none" id="canvas_background" height="402" width="582" y="-1" x="-1"/>
            </g>
            <g>
                <title>Layer 1</title>
                <rect id="svg_1" width="128" height="128" fillRule="evenodd" fill="none" clipRule="evenodd"/>
                <path id="svg_2" fillRule="evenodd" fill="#ff73e3" d="m64,0c-35.2,0 -64,28.8 -64,64s28.8,64 64,64s64,-28.8 64,-64s-28.48,-64 -64,-64m29.44,92.48c-1.28,1.92 -3.52,2.56 -5.44,1.28c-15.04,-9.28 -33.92,-11.2 -56.32,-6.08c-2.24,0.64 -4.16,-0.96 -4.8,-2.88c-0.64,-2.24 0.96,-4.16 2.88,-4.8c24.32,-5.44 45.44,-3.2 62.08,7.04c2.24,0.96 2.56,3.52 1.6,5.44m7.68,-17.6c-1.6,2.24 -4.48,3.2 -6.72,1.6c-17.28,-10.56 -43.52,-13.76 -63.68,-7.36c-2.56,0.64 -5.44,-0.64 -6.08,-3.2c-0.64,-2.56 0.64,-5.44 3.2,-6.08c23.36,-7.04 52.16,-3.52 72,8.64c1.92,0.96 2.88,4.16 1.28,6.4m0.64,-17.92c-20.48,-12.16 -54.72,-13.44 -74.24,-7.36c-3.2,0.96 -6.4,-0.96 -7.36,-3.84c-0.96,-3.2 0.96,-6.4 3.84,-7.36c22.72,-6.72 60.16,-5.44 83.84,8.64c2.88,1.6 3.84,5.44 2.24,8.32c-1.6,2.24 -5.44,3.2 -8.32,1.6" clipRule="evenodd"/>
            </g>
        </svg>